<svg width="32" height="24" viewBox="0 0 32 24" fill="none" xmlns="http://www.w3.org/2000/svg">
<rect width="32" height="24" fill="#F6F6FA"/>
<path d="M17.682 8.84383L15.8652 12.7584H15.6814V8.00037H13.0859V16.0024H15.238C15.8219 16.0024 16.341 15.6672 16.5898 15.1482L18.4174 11.2445H18.6012V16.0024H21.1966V8.00037H19.0121C18.4498 8.00037 17.9199 8.33559 17.682 8.84383Z" fill="#319B42"/>
<path d="M7.97268 9.04929L6.90207 12.7584H6.71822L5.6368 9.04929C5.45296 8.4221 4.8798 8.00037 4.23095 8.00037H1.66797V16.0024H4.26339V11.2445H4.44723L5.9396 16.0024H7.66988L9.16225 11.2445H9.34609V16.0024H11.9415V8.00037H9.37853C8.72968 8.00037 8.14571 8.4221 7.97268 9.04929Z" fill="#319B42"/>
<path d="M22.3247 11.5675V16.0024H24.9209V13.4064H27.7119C28.9235 13.4064 29.9512 12.6383 30.3298 11.5675H22.3247Z" fill="#319B42"/>
<path d="M27.636 8.00037H21.8594C22.2164 9.90417 23.8823 11.2455 25.8836 11.2455H30.3729C30.4054 11.0724 30.427 10.8777 30.427 10.683C30.427 9.13616 29.183 8.00037 27.636 8.00037Z" fill="url(#paint0_linear_6416_343)"/>
<defs>
<linearGradient id="paint0_linear_6416_343" x1="21.8594" y1="9.62293" x2="30.427" y2="9.62293" gradientUnits="userSpaceOnUse">
<stop stop-color="#00A3E1"/>
<stop offset="0.3042" stop-color="#009ADD"/>
<stop offset="0.7987" stop-color="#0082D4"/>
<stop offset="1" stop-color="#0076CF"/>
</linearGradient>
</defs>
</svg>
